<mxfile host="Electron" modified="2024-01-22T07:31:59.150Z" agent="Mozilla/5.0 (Windows NT 10.0; Win64; x64) AppleWebKit/537.36 (KHTML, like Gecko) draw.io/22.1.11 Chrome/114.0.5735.289 Electron/25.9.8 Safari/537.36" etag="N55s7fuOt45icOW5C-U-" version="22.1.11" type="device">
  <diagram name="第 1 页" id="JIpCpu3kDTxtHMUcW0k5">
    <mxGraphModel dx="1418" dy="828" grid="1" gridSize="10" guides="1" tooltips="1" connect="1" arrows="1" fold="1" page="1" pageScale="1" pageWidth="827" pageHeight="1169" math="0" shadow="0">
      <root>
        <mxCell id="0" />
        <mxCell id="1" parent="0" />
        <mxCell id="bo6n2A8fwEboj7JGyld0-2" value="IEnemy" style="shape=umlLifeline;perimeter=lifelinePerimeter;whiteSpace=wrap;html=1;container=1;dropTarget=0;collapsible=0;recursiveResize=0;outlineConnect=0;portConstraint=eastwest;newEdgeStyle={&quot;curved&quot;:0,&quot;rounded&quot;:0};" parent="1" vertex="1">
          <mxGeometry y="160" width="100" height="560" as="geometry" />
        </mxCell>
        <mxCell id="bo6n2A8fwEboj7JGyld0-9" value="" style="html=1;points=[[0,0,0,0,5],[0,1,0,0,-5],[1,0,0,0,5],[1,1,0,0,-5]];perimeter=orthogonalPerimeter;outlineConnect=0;targetShapes=umlLifeline;portConstraint=eastwest;newEdgeStyle={&quot;curved&quot;:0,&quot;rounded&quot;:0};" parent="bo6n2A8fwEboj7JGyld0-2" vertex="1">
          <mxGeometry x="45" y="90" width="10" height="220" as="geometry" />
        </mxCell>
        <mxCell id="bo6n2A8fwEboj7JGyld0-11" value="1: Attack(soldier)" style="html=1;align=left;spacingLeft=2;endArrow=block;rounded=0;edgeStyle=orthogonalEdgeStyle;curved=0;rounded=0;" parent="bo6n2A8fwEboj7JGyld0-2" edge="1">
          <mxGeometry relative="1" as="geometry">
            <mxPoint x="50" y="60" as="sourcePoint" />
            <Array as="points">
              <mxPoint x="80" y="90" />
            </Array>
            <mxPoint x="55" y="90" as="targetPoint" />
          </mxGeometry>
        </mxCell>
        <mxCell id="bo6n2A8fwEboj7JGyld0-3" value="EnemyAttr" style="shape=umlLifeline;perimeter=lifelinePerimeter;whiteSpace=wrap;html=1;container=1;dropTarget=0;collapsible=0;recursiveResize=0;outlineConnect=0;portConstraint=eastwest;newEdgeStyle={&quot;curved&quot;:0,&quot;rounded&quot;:0};" parent="1" vertex="1">
          <mxGeometry x="120" y="160" width="100" height="560" as="geometry" />
        </mxCell>
        <mxCell id="bo6n2A8fwEboj7JGyld0-12" value="" style="html=1;points=[[0,0,0,0,5],[0,1,0,0,-5],[1,0,0,0,5],[1,1,0,0,-5]];perimeter=orthogonalPerimeter;outlineConnect=0;targetShapes=umlLifeline;portConstraint=eastwest;newEdgeStyle={&quot;curved&quot;:0,&quot;rounded&quot;:0};" parent="bo6n2A8fwEboj7JGyld0-3" vertex="1">
          <mxGeometry x="45" y="120" width="10" height="40" as="geometry" />
        </mxCell>
        <mxCell id="bo6n2A8fwEboj7JGyld0-4" value="EnemyAttrStrategy" style="shape=umlLifeline;perimeter=lifelinePerimeter;whiteSpace=wrap;html=1;container=1;dropTarget=0;collapsible=0;recursiveResize=0;outlineConnect=0;portConstraint=eastwest;newEdgeStyle={&quot;curved&quot;:0,&quot;rounded&quot;:0};" parent="1" vertex="1">
          <mxGeometry x="240" y="160" width="140" height="560" as="geometry" />
        </mxCell>
        <mxCell id="bo6n2A8fwEboj7JGyld0-15" value="" style="html=1;points=[[0,0,0,0,5],[0,1,0,0,-5],[1,0,0,0,5],[1,1,0,0,-5]];perimeter=orthogonalPerimeter;outlineConnect=0;targetShapes=umlLifeline;portConstraint=eastwest;newEdgeStyle={&quot;curved&quot;:0,&quot;rounded&quot;:0};" parent="bo6n2A8fwEboj7JGyld0-4" vertex="1">
          <mxGeometry x="65" y="130" width="10" height="60" as="geometry" />
        </mxCell>
        <mxCell id="bo6n2A8fwEboj7JGyld0-5" value="Weapon" style="shape=umlLifeline;perimeter=lifelinePerimeter;whiteSpace=wrap;html=1;container=1;dropTarget=0;collapsible=0;recursiveResize=0;outlineConnect=0;portConstraint=eastwest;newEdgeStyle={&quot;curved&quot;:0,&quot;rounded&quot;:0};" parent="1" vertex="1">
          <mxGeometry x="400" y="160" width="100" height="560" as="geometry" />
        </mxCell>
        <mxCell id="bo6n2A8fwEboj7JGyld0-18" value="" style="html=1;points=[[0,0,0,0,5],[0,1,0,0,-5],[1,0,0,0,5],[1,1,0,0,-5]];perimeter=orthogonalPerimeter;outlineConnect=0;targetShapes=umlLifeline;portConstraint=eastwest;newEdgeStyle={&quot;curved&quot;:0,&quot;rounded&quot;:0};" parent="bo6n2A8fwEboj7JGyld0-5" vertex="1">
          <mxGeometry x="45" y="210" width="10" height="40" as="geometry" />
        </mxCell>
        <mxCell id="bo6n2A8fwEboj7JGyld0-20" value="" style="html=1;points=[[0,0,0,0,5],[0,1,0,0,-5],[1,0,0,0,5],[1,1,0,0,-5]];perimeter=orthogonalPerimeter;outlineConnect=0;targetShapes=umlLifeline;portConstraint=eastwest;newEdgeStyle={&quot;curved&quot;:0,&quot;rounded&quot;:0};" parent="bo6n2A8fwEboj7JGyld0-5" vertex="1">
          <mxGeometry x="45" y="270" width="10" height="40" as="geometry" />
        </mxCell>
        <mxCell id="bo6n2A8fwEboj7JGyld0-26" value="" style="html=1;points=[[0,0,0,0,5],[0,1,0,0,-5],[1,0,0,0,5],[1,1,0,0,-5]];perimeter=orthogonalPerimeter;outlineConnect=0;targetShapes=umlLifeline;portConstraint=eastwest;newEdgeStyle={&quot;curved&quot;:0,&quot;rounded&quot;:0};" parent="bo6n2A8fwEboj7JGyld0-5" vertex="1">
          <mxGeometry x="45" y="340" width="10" height="40" as="geometry" />
        </mxCell>
        <mxCell id="bo6n2A8fwEboj7JGyld0-6" value="ISoldier" style="shape=umlLifeline;perimeter=lifelinePerimeter;whiteSpace=wrap;html=1;container=1;dropTarget=0;collapsible=0;recursiveResize=0;outlineConnect=0;portConstraint=eastwest;newEdgeStyle={&quot;curved&quot;:0,&quot;rounded&quot;:0};" parent="1" vertex="1">
          <mxGeometry x="520" y="160" width="100" height="560" as="geometry" />
        </mxCell>
        <mxCell id="bo6n2A8fwEboj7JGyld0-22" value="" style="html=1;points=[[0,0,0,0,5],[0,1,0,0,-5],[1,0,0,0,5],[1,1,0,0,-5]];perimeter=orthogonalPerimeter;outlineConnect=0;targetShapes=umlLifeline;portConstraint=eastwest;newEdgeStyle={&quot;curved&quot;:0,&quot;rounded&quot;:0};" parent="bo6n2A8fwEboj7JGyld0-6" vertex="1">
          <mxGeometry x="45" y="280" width="10" height="200" as="geometry" />
        </mxCell>
        <mxCell id="bo6n2A8fwEboj7JGyld0-7" value="SoldierAttr" style="shape=umlLifeline;perimeter=lifelinePerimeter;whiteSpace=wrap;html=1;container=1;dropTarget=0;collapsible=0;recursiveResize=0;outlineConnect=0;portConstraint=eastwest;newEdgeStyle={&quot;curved&quot;:0,&quot;rounded&quot;:0};" parent="1" vertex="1">
          <mxGeometry x="640" y="160" width="100" height="560" as="geometry" />
        </mxCell>
        <mxCell id="bo6n2A8fwEboj7JGyld0-24" value="" style="html=1;points=[[0,0,0,0,5],[0,1,0,0,-5],[1,0,0,0,5],[1,1,0,0,-5]];perimeter=orthogonalPerimeter;outlineConnect=0;targetShapes=umlLifeline;portConstraint=eastwest;newEdgeStyle={&quot;curved&quot;:0,&quot;rounded&quot;:0};" parent="bo6n2A8fwEboj7JGyld0-7" vertex="1">
          <mxGeometry x="45" y="300" width="10" height="160" as="geometry" />
        </mxCell>
        <mxCell id="bo6n2A8fwEboj7JGyld0-8" value="SoldierAttrStrategy" style="shape=umlLifeline;perimeter=lifelinePerimeter;whiteSpace=wrap;html=1;container=1;dropTarget=0;collapsible=0;recursiveResize=0;outlineConnect=0;portConstraint=eastwest;newEdgeStyle={&quot;curved&quot;:0,&quot;rounded&quot;:0};" parent="1" vertex="1">
          <mxGeometry x="760" y="160" width="140" height="560" as="geometry" />
        </mxCell>
        <mxCell id="bo6n2A8fwEboj7JGyld0-32" value="" style="html=1;points=[[0,0,0,0,5],[0,1,0,0,-5],[1,0,0,0,5],[1,1,0,0,-5]];perimeter=orthogonalPerimeter;outlineConnect=0;targetShapes=umlLifeline;portConstraint=eastwest;newEdgeStyle={&quot;curved&quot;:0,&quot;rounded&quot;:0};" parent="bo6n2A8fwEboj7JGyld0-8" vertex="1">
          <mxGeometry x="65" y="385" width="10" height="40" as="geometry" />
        </mxCell>
        <mxCell id="bo6n2A8fwEboj7JGyld0-13" value="2: GetAttackPlusValue" style="html=1;verticalAlign=bottom;endArrow=block;curved=0;rounded=0;entryX=0;entryY=0;entryDx=0;entryDy=5;" parent="1" source="bo6n2A8fwEboj7JGyld0-9" target="bo6n2A8fwEboj7JGyld0-12" edge="1">
          <mxGeometry relative="1" as="geometry">
            <mxPoint x="95" y="285" as="sourcePoint" />
          </mxGeometry>
        </mxCell>
        <mxCell id="bo6n2A8fwEboj7JGyld0-16" value="3: GetAttackPlusValue" style="html=1;verticalAlign=bottom;endArrow=block;curved=0;rounded=0;entryX=0;entryY=0;entryDx=0;entryDy=5;" parent="1" source="bo6n2A8fwEboj7JGyld0-12" target="bo6n2A8fwEboj7JGyld0-15" edge="1">
          <mxGeometry relative="1" as="geometry">
            <mxPoint x="235" y="295" as="sourcePoint" />
          </mxGeometry>
        </mxCell>
        <mxCell id="bo6n2A8fwEboj7JGyld0-17" value="4: AttackPlusValue" style="html=1;verticalAlign=bottom;endArrow=open;dashed=1;endSize=8;curved=0;rounded=0;exitX=0;exitY=1;exitDx=0;exitDy=-5;" parent="1" source="bo6n2A8fwEboj7JGyld0-15" target="bo6n2A8fwEboj7JGyld0-9" edge="1">
          <mxGeometry relative="1" as="geometry">
            <mxPoint x="235" y="365" as="targetPoint" />
          </mxGeometry>
        </mxCell>
        <mxCell id="bo6n2A8fwEboj7JGyld0-19" value="5: SetAttackPlusValue" style="html=1;verticalAlign=bottom;startArrow=none;endArrow=block;startSize=8;curved=0;rounded=0;entryX=0;entryY=0;entryDx=0;entryDy=5;startFill=0;" parent="1" target="bo6n2A8fwEboj7JGyld0-18" edge="1">
          <mxGeometry relative="1" as="geometry">
            <mxPoint x="55" y="375" as="sourcePoint" />
          </mxGeometry>
        </mxCell>
        <mxCell id="bo6n2A8fwEboj7JGyld0-21" value="6: Fire(solider)" style="html=1;verticalAlign=bottom;startArrow=none;endArrow=block;startSize=8;curved=0;rounded=0;entryX=0;entryY=0;entryDx=0;entryDy=5;startFill=0;" parent="1" source="bo6n2A8fwEboj7JGyld0-9" target="bo6n2A8fwEboj7JGyld0-20" edge="1">
          <mxGeometry relative="1" as="geometry">
            <mxPoint x="375" y="435" as="sourcePoint" />
          </mxGeometry>
        </mxCell>
        <mxCell id="bo6n2A8fwEboj7JGyld0-23" value="7: UnderAttack(enemy)" style="html=1;verticalAlign=bottom;startArrow=none;endArrow=block;startSize=8;curved=0;rounded=0;entryX=0;entryY=0;entryDx=0;entryDy=5;startFill=0;" parent="1" source="bo6n2A8fwEboj7JGyld0-20" target="bo6n2A8fwEboj7JGyld0-22" edge="1">
          <mxGeometry relative="1" as="geometry">
            <mxPoint x="495" y="445" as="sourcePoint" />
          </mxGeometry>
        </mxCell>
        <mxCell id="bo6n2A8fwEboj7JGyld0-25" value="8: CalcDamageValue(enemy)" style="html=1;verticalAlign=bottom;startArrow=none;endArrow=block;startSize=8;curved=0;rounded=0;entryX=0;entryY=0;entryDx=0;entryDy=5;startFill=0;" parent="1" source="bo6n2A8fwEboj7JGyld0-22" target="bo6n2A8fwEboj7JGyld0-24" edge="1">
          <mxGeometry relative="1" as="geometry">
            <mxPoint x="615" y="465" as="sourcePoint" />
          </mxGeometry>
        </mxCell>
        <mxCell id="bo6n2A8fwEboj7JGyld0-27" value="9: GetAttackValue" style="html=1;verticalAlign=bottom;endArrow=block;curved=0;rounded=0;entryX=1;entryY=0;entryDx=0;entryDy=5;" parent="1" source="bo6n2A8fwEboj7JGyld0-24" target="bo6n2A8fwEboj7JGyld0-26" edge="1">
          <mxGeometry relative="1" as="geometry">
            <mxPoint x="525" y="505" as="sourcePoint" />
          </mxGeometry>
        </mxCell>
        <mxCell id="bo6n2A8fwEboj7JGyld0-28" value="10: AttackValue" style="html=1;verticalAlign=bottom;endArrow=open;dashed=1;endSize=8;curved=0;rounded=0;exitX=1;exitY=1;exitDx=0;exitDy=-5;" parent="1" source="bo6n2A8fwEboj7JGyld0-26" target="bo6n2A8fwEboj7JGyld0-24" edge="1">
          <mxGeometry relative="1" as="geometry">
            <mxPoint x="525" y="575" as="targetPoint" />
          </mxGeometry>
        </mxCell>
        <mxCell id="bo6n2A8fwEboj7JGyld0-33" value="11: GetDamageDecValue" style="html=1;verticalAlign=bottom;endArrow=block;curved=0;rounded=0;entryX=0;entryY=0;entryDx=0;entryDy=5;" parent="1" source="bo6n2A8fwEboj7JGyld0-24" target="bo6n2A8fwEboj7JGyld0-32" edge="1">
          <mxGeometry relative="1" as="geometry">
            <mxPoint x="755" y="550" as="sourcePoint" />
          </mxGeometry>
        </mxCell>
        <mxCell id="bo6n2A8fwEboj7JGyld0-34" value="12: DamageDecValue" style="html=1;verticalAlign=bottom;endArrow=open;dashed=1;endSize=8;curved=0;rounded=0;exitX=0;exitY=1;exitDx=0;exitDy=-5;" parent="1" source="bo6n2A8fwEboj7JGyld0-32" target="bo6n2A8fwEboj7JGyld0-24" edge="1">
          <mxGeometry relative="1" as="geometry">
            <mxPoint x="755" y="620" as="targetPoint" />
          </mxGeometry>
        </mxCell>
        <mxCell id="bo6n2A8fwEboj7JGyld0-44" value="13: Finish" style="html=1;verticalAlign=bottom;endArrow=open;dashed=1;endSize=8;curved=0;rounded=0;" parent="1" edge="1">
          <mxGeometry relative="1" as="geometry">
            <mxPoint x="685" y="610" as="sourcePoint" />
            <mxPoint x="575" y="610" as="targetPoint" />
          </mxGeometry>
        </mxCell>
      </root>
    </mxGraphModel>
  </diagram>
</mxfile>
